HIERARCHY
ROOT Hips
{
	OFFSET 0.00000 0.00000 0.00000
	CHANNELS 6 Xposition Yposition Zposition Zrotation Yrotation Xrotation 
	JOINT RightUpLegDummy
	{
		OFFSET 0 0 0
		CHANNELS 3 Zrotation Yrotation Xrotation
		JOINT RightUpLeg
		{
			OFFSET -3.52197 -3.41223 0.04002
			CHANNELS 3 Zrotation Yrotation Xrotation
			JOINT RightLeg
			{
				OFFSET 0.00006 -17.42390 1.60435
				CHANNELS 3 Zrotation Yrotation Xrotation
				JOINT RightFoot
				{
					OFFSET 0.06153 -16.50078 -1.63901
					CHANNELS 3 Zrotation Yrotation Xrotation
					JOINT RightToes
					{
						OFFSET 0.00298 -1.73825 3.34613
						CHANNELS 3 Zrotation Yrotation Xrotation
						End Site
						{
							OFFSET 0.00480 -0.05416 3.85043
						}
					}
				}
			}
		}
	}
	JOINT SpineDummy
	{
		OFFSET 0 0 0
		CHANNELS 3 Zrotation Yrotation Xrotation
		JOINT Spine
		{
			OFFSET 0.00000 4.68130 0.00000
			CHANNELS 3 Zrotation Yrotation Xrotation
			JOINT Spine1
			{
				OFFSET -0.00000 10.10138 0.05002
				CHANNELS 3 Zrotation Yrotation Xrotation
				JOINT HEadDummy
				{
					OFFSET 0 0 0
					CHANNELS 3 Zrotation Yrotation Xrotation
					JOINT Head
					{
						OFFSET -0.00000 3.43865 0.00438
						CHANNELS 3 Zrotation Yrotation Xrotation
						End Site
						{
							OFFSET -0.11417 5.02924 0.98962
						}
					}
				}
				JOINT LeftShoulder1Dummy
				{
					OFFSET 0 0 0
					CHANNELS 3 Zrotation Yrotation Xrotation
					JOINT LeftShoulder1
					{
						OFFSET 3.53937 -0.14262 -0.08662
						CHANNELS 3 Zrotation Yrotation Xrotation
						JOINT LeftArm
						{
							OFFSET 4.04833 -0.00133 0.12681
							CHANNELS 3 Zrotation Yrotation Xrotation
							JOINT LeftForeArm
							{
								OFFSET 10.33880 -0.01036 -0.55515
								CHANNELS 3 Zrotation Yrotation Xrotation
								JOINT LeftHand
								{
									OFFSET 8.69677 0.07543 0.40060
									CHANNELS 3 Zrotation Yrotation Xrotation
									End Site
									{
										OFFSET 5.28377 -0.21905 0.59205
									}
								}
							}
						}
					}
				}
				JOINT RightShoulderDummy
				{
					OFFSET 0 0 0
					CHANNELS 3 Zrotation Yrotation Xrotation
					JOINT RightShoulder
					{
						OFFSET -3.53937 -0.14262 -0.08660
						CHANNELS 3 Zrotation Yrotation Xrotation
						JOINT RightArm
						{
							OFFSET -4.04833 -0.00133 0.12683
							CHANNELS 3 Zrotation Yrotation Xrotation
							JOINT RightForeArm
							{
								OFFSET -10.37987 -0.01039 -0.55511
								CHANNELS 3 Zrotation Yrotation Xrotation
								JOINT RightHand
								{
									OFFSET -8.67398 0.07538 0.40058
									CHANNELS 3 Zrotation Yrotation Xrotation
									End Site
									{
										OFFSET -5.24810 -0.21916 0.59204
									}
								}
							}
						}
					}
				}
			}
		}
	}
	JOINT LeftUpLegDummy
	{
		OFFSET 0 0 0
		CHANNELS 3 Zrotation Yrotation Xrotation
		JOINT LeftUpLeg
		{
			OFFSET 3.52197 -3.41223 0.04002
			CHANNELS 3 Zrotation Yrotation Xrotation
			JOINT LeftLeg
			{
				OFFSET -0.00012 -17.42399 1.60337
				CHANNELS 3 Zrotation Yrotation Xrotation
				JOINT LeftFoot
				{
					OFFSET -0.09972 -16.50070 -1.63802
					CHANNELS 3 Zrotation Yrotation Xrotation
					JOINT LeftToes
					{
						OFFSET -0.01575 -1.73823 3.34611
						CHANNELS 3 Zrotation Yrotation Xrotation
						End Site
						{
							OFFSET 0.03150 -0.01868 3.85031
						}
					}
				}
			}
		}
	}
}
MOTION
Frames: 16
Frame Time: 0.033333
-37.1455 39.9239 64.1285 -179.2490 2.6677 178.0240 0.0000 0.0000 0.0000 1.8646 -1.5012 1.8118 -1.0132 -2.9264 4.1531 -3.5996 0.1967 -4.2449 0.0000 -0.0000 0.0000 0.0000 0.0000 0.0000 0.1598 0.2686 3.1736 3.2090 -0.3127 -0.5399 -0.0000 0.0000 -0.0000 1.6585 -0.0842 -6.4645 -0.0000 0.0000 -0.0000 -34.3303 -2.7238 2.5137 -44.7883 -15.0117 -17.5381 -10.1489 5.0275 51.5770 15.7731 -2.1363 -1.0064 -0.0000 0.0000 -0.0000 34.8094 5.1484 3.5327 40.4989 5.6177 -15.7030 11.1108 -0.3323 24.2696 -11.1206 2.7061 -0.7538 0.0000 0.0000 0.0000 2.4121 1.8917 0.9764 1.5667 4.0302 5.5079 0.2156 0.0128 -4.7398 0.0000 0.0000 -0.0000
-37.1195 39.9208 64.1086 -179.2490 2.6853 178.0540 0.0000 0.0000 0.0000 1.9226 -1.4491 1.7985 -1.0524 -2.9647 4.1799 -3.5985 0.1968 -4.2859 0.0000 -0.0000 0.0000 0.0000 0.0000 0.0000 0.1867 0.2725 3.1274 3.1955 -0.3151 -0.4817 -0.0000 0.0000 -0.0000 1.7128 -0.1183 -6.6034 -0.0000 0.0000 -0.0000 -34.4151 -2.7389 2.5251 -44.6442 -15.0395 -17.5022 -10.1915 5.0246 51.6534 15.6316 -2.7539 -1.0761 -0.0000 0.0000 -0.0000 34.6531 5.1174 3.5063 40.6957 5.5925 -15.7106 11.0834 -0.2641 24.3024 -11.3244 2.2551 -0.7270 0.0000 0.0000 0.0000 2.4569 1.9179 0.9632 1.5696 4.0101 5.5412 0.1351 0.0180 -4.7860 0.0000 0.0000 -0.0000
-37.0746 39.9152 64.0779 -179.2490 2.7382 178.1010 0.0000 0.0000 0.0000 2.0288 -1.3598 1.7584 -1.1144 -3.0127 4.2503 -3.6200 0.1983 -4.3253 0.0000 -0.0000 0.0000 0.0000 0.0000 0.0000 0.2656 0.2477 3.0491 3.1051 -0.3291 -0.3342 -0.0000 0.0000 -0.0000 1.7206 -0.2813 -6.7406 -0.0000 0.0000 -0.0000 -34.4272 -2.7292 2.5220 -44.5143 -15.1366 -17.4677 -10.2320 5.0235 51.6750 15.5655 -3.4170 -1.1561 -0.0000 0.0000 -0.0000 34.5703 5.1042 3.4937 40.8133 5.6745 -15.6437 11.1088 -0.2817 24.1217 -11.8934 1.5217 -0.6957 0.0000 0.0000 0.0000 2.5337 1.9554 0.9208 1.5815 4.0068 5.6478 0.0328 0.0246 -4.8787 0.0000 0.0000 -0.0000
-37.0337 39.9112 64.0532 -179.2560 2.7924 178.1400 0.0000 0.0000 0.0000 2.1050 -1.3003 1.7140 -1.1532 -3.0367 4.3196 -3.6517 0.2003 -4.3277 0.0000 -0.0000 0.0000 0.0000 0.0000 0.0000 0.3141 0.2197 2.9961 3.0288 -0.3495 -0.1750 -0.0000 0.0000 -0.0000 1.6819 -0.5812 -6.9103 -0.0000 0.0000 -0.0000 -34.3783 -2.7276 2.5182 -44.5293 -15.2721 -17.4691 -10.2176 5.0252 51.6259 15.6671 -3.4485 -1.1678 -0.0000 0.0000 -0.0000 34.6663 5.1244 3.5103 40.6774 5.8068 -15.5576 11.1663 -0.3967 24.0113 -12.2030 1.4340 -0.7055 0.0000 0.0000 0.0000 2.5793 1.9673 0.8864 1.6122 4.0364 5.7326 -0.0103 0.0274 -4.9441 0.0000 0.0000 -0.0000
-37.0035 39.9088 64.0356 -179.2800 2.8126 178.1650 0.0000 0.0000 0.0000 2.1241 -1.2971 1.6809 -1.1468 -3.0440 4.3812 -3.6889 0.2027 -4.3386 0.0000 -0.0000 0.0000 0.0000 0.0000 0.0000 0.3367 0.2258 3.0607 2.9978 -0.3380 -0.1735 -0.0000 0.0000 -0.0000 1.6652 -0.8330 -6.9861 -0.0000 0.0000 -0.0000 -34.3789 -2.7663 2.5339 -44.5925 -15.3506 -17.4365 -10.2009 5.0248 51.6455 15.7126 -3.1750 -1.1362 -0.0000 0.0000 -0.0000 34.7236 5.1255 3.5158 40.5767 5.7710 -15.5756 11.1590 -0.3762 24.1751 -11.9813 1.8207 -0.7294 0.0000 0.0000 0.0000 2.5735 1.9357 0.8617 1.6698 4.0824 5.7881 -0.0197 0.0280 -4.9684 0.0000 0.0000 -0.0000
-36.9782 39.9051 64.0180 -179.3140 2.8044 178.1770 0.0000 0.0000 0.0000 2.1010 -1.3442 1.6511 -1.0939 -3.0287 4.4742 -3.7565 0.2073 -4.4074 0.0000 -0.0000 0.0000 0.0000 0.0000 0.0000 0.3994 0.2379 3.2516 2.9266 -0.3086 -0.3568 -0.0000 0.0000 -0.0000 1.7245 -0.9221 -6.9780 -0.0000 0.0000 -0.0000 -34.4156 -2.8140 2.5555 -44.5832 -15.3442 -17.3639 -10.2187 5.0186 51.8377 15.6531 -3.2102 -1.1362 -0.0000 0.0000 -0.0000 34.6644 5.0983 3.4996 40.6509 5.5913 -15.6436 11.1158 -0.2092 24.2817 -11.7261 1.9012 -0.7210 0.0000 0.0000 0.0000 2.5297 1.8615 0.8308 1.7718 4.1455 5.8732 -0.0506 0.0300 -4.9936 0.0000 0.0000 -0.0000
-36.9506 39.9013 63.9967 -179.3620 2.7843 178.1800 0.0000 0.0000 0.0000 2.0615 -1.4082 1.6348 -1.0359 -2.9993 4.5793 -3.8417 0.2131 -4.5059 0.0000 -0.0000 0.0000 0.0000 0.0000 0.0000 0.4617 0.1957 3.4197 2.8222 -0.3298 -0.5078 -0.0000 0.0000 -0.0000 1.8035 -0.8841 -6.9839 -0.0000 0.0000 -0.0000 -34.4350 -2.8315 2.5638 -44.5279 -15.3313 -17.3819 -10.2063 5.0104 52.1032 15.7165 -3.5252 -1.1816 -0.0000 0.0000 -0.0000 34.6647 5.0969 3.4990 40.6253 5.5709 -15.5949 11.1583 -0.2312 24.0844 -11.8056 1.7368 -0.7106 0.0000 0.0000 0.0000 2.4726 1.7770 0.8273 1.8784 4.2076 5.9375 -0.1085 0.0337 -5.0269 0.0000 0.0000 -0.0000
-36.9173 39.9001 63.9729 -179.4190 2.7549 178.1870 0.0000 0.0000 0.0000 2.0474 -1.4325 1.6523 -1.0327 -3.0095 4.6166 -3.8899 0.2136 -4.5753 0.0000 -0.0000 0.0000 0.0000 0.0000 0.0000 0.4229 0.1020 3.4140 2.8270 -0.4280 -0.4352 -0.0000 0.0000 -0.0000 1.7882 -0.8022 -7.0300 -0.0000 0.0000 -0.0000 -34.4555 -2.8102 2.5565 -44.5374 -15.3749 -17.5052 -10.1387 5.0084 52.1951 15.8999 -3.6671 -1.2143 -0.0000 0.0000 -0.0000 34.7441 5.1317 3.5201 40.3883 5.8401 -15.4319 11.2797 -0.5766 23.8807 -11.9628 1.8493 -0.7310 0.0000 0.0000 0.0000 2.4465 1.7402 0.8768 1.9116 4.2089 5.8933 -0.1718 0.0378 -5.0393 0.0000 0.0000 -0.0000
-36.8795 39.9001 63.9484 -179.4490 2.7405 178.2260 0.0000 0.0000 0.0000 2.0933 -1.3952 1.6719 -1.0719 -3.0652 4.5805 -3.9020 0.2128 -4.6146 0.0000 -0.0000 0.0000 0.0000 0.0000 0.0000 0.3210 0.0306 3.2865 2.9730 -0.5311 -0.2519 -0.0000 0.0000 -0.0000 1.6690 -0.7479 -7.0459 -0.0000 0.0000 -0.0000 -34.4700 -2.7537 2.5346 -44.6484 -15.4345 -17.5248 -10.1241 5.0138 52.0266 15.8980 -3.5694 -1.2015 -0.0000 0.0000 -0.0000 34.6893 5.1412 3.5192 40.2564 6.1399 -15.3275 11.3441 -0.8995 23.9498 -12.0154 1.9437 -0.7434 0.0000 0.0000 0.0000 2.4924 1.7784 0.9132 1.8677 4.1452 5.8114 -0.2260 0.0413 -5.0416 0.0000 0.0000 -0.0000
-36.8423 39.9007 63.9246 -179.4310 2.7807 178.3000 0.0000 0.0000 0.0000 2.1788 -1.3402 1.6506 -1.0776 -3.0870 4.5447 -3.9364 0.2141 -4.6550 0.0000 -0.0000 0.0000 0.0000 0.0000 0.0000 0.3029 0.0316 3.1969 3.0861 -0.5529 -0.1806 -0.0000 0.0000 -0.0000 1.5726 -0.7501 -6.9912 -0.0000 0.0000 -0.0000 -34.3984 -2.6934 2.5057 -44.8039 -15.4613 -17.3734 -10.1985 5.0178 51.8699 15.7037 -3.5121 -1.1788 -0.0000 0.0000 -0.0000 34.5123 5.1084 3.4904 40.3608 6.2094 -15.3586 11.3073 -0.9231 24.0864 -12.1632 1.5470 -0.7140 0.0000 0.0000 0.0000 2.5974 1.8619 0.8796 1.8149 4.0970 5.8131 -0.2467 0.0426 -5.0686 0.0000 0.0000 -0.0000
-36.8083 39.9014 63.9003 -179.4000 2.8510 178.3630 0.0000 0.0000 0.0000 2.2595 -1.2989 1.6367 -1.0541 -3.0629 4.5199 -3.9890 0.2166 -4.6896 0.0000 -0.0000 0.0000 0.0000 0.0000 0.0000 0.3943 0.0796 3.1548 3.0355 -0.4965 -0.1875 -0.0000 0.0000 -0.0000 1.6052 -0.7689 -6.8960 -0.0000 0.0000 -0.0000 -34.2542 -2.7008 2.4996 -44.9163 -15.5020 -17.3079 -10.2109 5.0121 52.0468 15.6884 -3.5580 -1.1835 -0.0000 0.0000 -0.0000 34.4900 5.0899 3.4809 40.4008 6.1429 -15.4712 11.2533 -0.8737 24.1042 -12.3329 1.2231 -0.6925 0.0000 0.0000 0.0000 2.7102 1.9577 0.8548 1.7633 4.0813 5.8390 -0.2189 0.0408 -5.1009 0.0000 0.0000 -0.0000
-36.7729 39.9018 63.8724 -179.4140 2.8742 178.3730 0.0000 0.0000 0.0000 2.3202 -1.2492 1.7031 -1.0888 -3.0904 4.4587 -4.0027 0.2159 -4.7052 0.0000 -0.0000 0.0000 0.0000 0.0000 0.0000 0.4535 0.1244 3.0400 2.9342 -0.4364 -0.0767 -0.0000 0.0000 -0.0000 1.7076 -0.6957 -6.8125 -0.0000 0.0000 -0.0000 -34.1928 -2.7925 2.5326 -44.8937 -15.6043 -17.4399 -10.1070 5.0018 52.4152 15.9127 -3.5520 -1.2003 -0.0000 0.0000 -0.0000 34.6537 5.1116 3.5040 40.2379 6.1468 -15.6239 11.2188 -1.0154 24.1818 -12.1427 1.6781 -0.7252 0.0000 0.0000 0.0000 2.7922 2.0512 0.9325 1.6716 4.0190 5.7595 -0.1873 0.0388 -5.0875 0.0000 0.0000 -0.0000
-36.7332 39.9013 63.8436 -179.4850 2.8342 178.3660 0.0000 0.0000 0.0000 2.3390 -1.2115 1.7808 -1.1630 -3.1700 4.4186 -4.0102 0.2136 -4.7472 0.0000 -0.0000 0.0000 0.0000 0.0000 0.0000 0.3816 0.1439 2.8664 2.9614 -0.4252 0.1196 -0.0000 0.0000 -0.0000 1.7406 -0.5685 -6.6992 -0.0000 0.0000 -0.0000 -34.2888 -2.8607 2.5661 -44.6992 -15.6792 -17.4320 -10.1137 5.0005 52.4537 15.9680 -3.4707 -1.1940 -0.0000 0.0000 -0.0000 34.7236 5.1279 3.5168 40.1393 6.2011 -15.7513 11.1745 -1.1651 24.4036 -11.7261 2.3638 -0.7645 0.0000 0.0000 0.0000 2.8069 2.0895 1.0358 1.5969 3.9299 5.6377 -0.2172 0.0407 -5.0406 0.0000 0.0000 -0.0000
-36.6953 39.8991 63.8210 -179.5880 2.7755 178.3900 0.0000 0.0000 0.0000 2.2732 -1.2678 1.7445 -1.1442 -3.1780 4.5249 -4.1014 0.2141 -4.8677 0.0000 -0.0000 0.0000 0.0000 0.0000 0.0000 0.2690 0.1238 2.8045 3.0615 -0.4630 0.1705 -0.0000 0.0000 -0.0000 1.6762 -0.3596 -6.5721 -0.0000 0.0000 -0.0000 -34.3961 -2.8162 2.5551 -44.4664 -15.6089 -17.0701 -10.3653 5.0122 51.9843 15.7168 -3.3748 -1.1622 -0.0000 0.0000 -0.0000 34.6316 5.1187 3.5050 40.2427 6.1776 -15.7149 11.1470 -1.0466 24.5399 -11.6687 2.3453 -0.7585 0.0000 0.0000 0.0000 2.7270 2.0120 1.0343 1.6502 3.9329 5.6316 -0.3036 0.0462 -5.0272 0.0000 0.0000 -0.0000
-36.6610 39.8933 63.8017 -179.6740 2.6791 178.4040 0.0000 0.0000 0.0000 2.1734 -1.3969 1.6774 -1.0362 -3.1536 4.7136 -4.2352 0.2154 -5.0231 0.0000 -0.0000 0.0000 0.0000 0.0000 0.0000 0.2821 0.0490 2.9093 3.0049 -0.5261 0.0443 -0.0000 0.0000 -0.0000 1.6484 -0.1095 -6.4744 -0.0000 0.0000 -0.0000 -34.3298 -2.7369 2.5189 -44.4255 -15.4717 -16.7760 -10.5706 5.0238 51.5333 15.5553 -3.2390 -1.1325 -0.0000 0.0000 -0.0000 34.6227 5.1206 3.5050 40.3497 6.0834 -15.5019 11.1857 -0.7713 24.5099 -11.9561 1.8731 -0.7330 0.0000 0.0000 0.0000 2.6295 1.8932 0.9888 1.7661 3.9530 5.7184 -0.3779 0.0510 -5.0656 0.0000 0.0000 -0.0000
-36.6184 39.8898 63.7727 -179.6960 2.4932 178.3360 0.0000 0.0000 0.0000 2.1971 -1.4371 1.7985 -1.0180 -3.3109 4.7545 -4.2767 0.2138 -5.1181 0.0000 -0.0000 0.0000 0.0000 0.0000 0.0000 0.4405 -0.0429 3.0290 2.7662 -0.5777 -0.0458 -0.0000 0.0000 -0.0000 1.7594 0.0022 -6.4338 -0.0000 0.0000 -0.0000 -34.1255 -2.7493 2.5109 -44.5805 -15.4758 -17.0017 -10.4280 5.0210 51.6786 15.7016 -3.1345 -1.1302 -0.0000 0.0000 -0.0000 34.7653 5.1431 3.5266 40.3688 5.9867 -15.3360 11.2417 -0.6033 24.5255 -11.9456 1.8516 -0.7300 0.0000 0.0000 0.0000 2.6737 1.9085 1.0599 1.7482 3.7509 5.7654 -0.3964 0.0515 -5.1169 0.0000 0.0000 -0.0000
